<svg xmlns="http://www.w3.org/2000/svg" width="1024" height="1024" viewBox="0 0 1024 1024">
<g transform="translate(172,172) scale(6.8)"><circle cx="50" cy="50" r="39" fill="none" stroke="#000" stroke-width="2.2" opacity="0.55"></circle><line x1="50.00" y1="11.00" x2="50.00" y2="21.00" stroke="#000" stroke-width="3.2" stroke-linecap="round"></line><line x1="69.50" y1="16.23" x2="66.50" y2="21.42" stroke="#000" stroke-width="1.6" stroke-linecap="round"></line><line x1="83.77" y1="30.50" x2="78.58" y2="33.50" stroke="#000" stroke-width="1.6" stroke-linecap="round"></line><line x1="89.00" y1="50.00" x2="79.00" y2="50.00" stroke="#000" stroke-width="3.2" stroke-linecap="round"></line><line x1="83.77" y1="69.50" x2="78.58" y2="66.50" stroke="#000" stroke-width="1.6" stroke-linecap="round"></line><line x1="69.50" y1="83.77" x2="66.50" y2="78.58" stroke="#000" stroke-width="1.6" stroke-linecap="round"></line><line x1="50.00" y1="89.00" x2="50.00" y2="79.00" stroke="#000" stroke-width="3.2" stroke-linecap="round"></line><line x1="30.50" y1="83.77" x2="33.50" y2="78.58" stroke="#000" stroke-width="1.6" stroke-linecap="round"></line><line x1="16.23" y1="69.50" x2="21.42" y2="66.50" stroke="#000" stroke-width="1.6" stroke-linecap="round"></line><line x1="11.00" y1="50.00" x2="21.00" y2="50.00" stroke="#000" stroke-width="3.2" stroke-linecap="round"></line><line x1="16.23" y1="30.50" x2="21.42" y2="33.50" stroke="#000" stroke-width="1.6" stroke-linecap="round"></line><line x1="30.50" y1="16.23" x2="33.50" y2="21.42" stroke="#000" stroke-width="1.6" stroke-linecap="round"></line><line x1="50" y1="50" x2="73.38" y2="36.50" stroke="#000" stroke-width="3" stroke-linecap="round"></line><line x1="50" y1="50" x2="36.07" y2="40.25" stroke="#000" stroke-width="3.6" stroke-linecap="round"></line><circle cx="50" cy="50" r="3.4" fill="#000"></circle></g>
</svg>